<svg width="20" height="20" viewBox="0 0 20 20" fill="none" xmlns="http://www.w3.org/2000/svg">
<g id="Chart">
<path id="Chart_2" fill-rule="evenodd" clip-rule="evenodd" d="M14.3588 0H5.6412C2.25586 0 0 2.4199 0 5.89317V14.1068C0 17.5833 2.24992 20 5.6412 20H14.3588C17.7501 20 20 17.5833 20 14.1068V5.89317C20 2.41665 17.7501 0 14.3588 0ZM5.6412 1.39535H14.3588C16.9563 1.39535 18.6047 3.16587 18.6047 5.89317V14.1068C18.6047 16.8341 16.9563 18.6047 14.3588 18.6047H5.6412C3.04372 18.6047 1.39535 16.8341 1.39535 14.1068V5.89317C1.39535 3.16949 3.04923 1.39535 5.6412 1.39535ZM10.7267 5.17893C10.6805 4.8384 10.3886 4.57593 10.0354 4.57593C9.65012 4.57593 9.33776 4.88829 9.33776 5.2736V14.7087L9.34413 14.8034C9.39033 15.1439 9.68223 15.4064 10.0354 15.4064C10.4208 15.4064 10.7331 15.094 10.7331 14.7087V5.2736L10.7267 5.17893ZM6.38566 8.2325C6.33946 7.89197 6.04756 7.6295 5.69435 7.6295C5.30904 7.6295 4.99668 7.94186 4.99668 8.32717V14.7087L5.00305 14.8034C5.04924 15.1439 5.34115 15.4064 5.69435 15.4064C6.07967 15.4064 6.39203 15.094 6.39203 14.7087V8.32717L6.38566 8.2325ZM14.3056 11.0017C14.6589 11.0017 14.9508 11.2642 14.997 11.6047L15.0033 11.6994V14.7087C15.0033 15.094 14.691 15.4064 14.3056 15.4064C13.9524 15.4064 13.6605 15.1439 13.6143 14.8034L13.608 14.7087V11.6994C13.608 11.3141 13.9203 11.0017 14.3056 11.0017Z" fill="#65656B"/>
</g>
</svg>
