<svg width="20" height="18" viewBox="0 0 20 18" fill="none" xmlns="http://www.w3.org/2000/svg">
<g id="Hide">
<path id="Hide_2" fill-rule="evenodd" clip-rule="evenodd" d="M18.4177 0.716186C18.1248 0.427938 17.65 0.427938 17.3571 0.716186L15.2693 2.77086C13.6565 1.6629 11.8555 1.07543 10 1.07543C7.94315 1.07543 5.94745 1.79542 4.21856 3.14201C2.51054 4.46402 1.08697 6.37061 0.0614407 8.70811C-0.020262 8.89433 -0.0204886 9.10544 0.0608142 9.29184C0.946427 11.3222 2.13598 13.0255 3.55444 14.2999L1.58307 16.24L1.51045 16.3228C1.2926 16.6117 1.3168 17.0218 1.58307 17.2838C1.87596 17.5721 2.35084 17.5721 2.64373 17.2838L18.4177 1.76002L18.4903 1.67724C18.7082 1.38828 18.684 0.978229 18.4177 0.716186ZM4.61636 13.2548L6.75422 11.1508C6.32259 10.5256 6.086 9.78501 6.086 9.00118C6.086 6.86842 7.83371 5.1473 10 5.1473C10.7921 5.1473 11.5527 5.38178 12.1867 5.80457L14.1892 3.83382C12.8815 2.99055 11.4565 2.55163 10 2.55163C8.29025 2.55163 6.61992 3.15424 5.14764 4.30096C3.73781 5.39217 2.52945 6.96072 1.61706 8.90041L1.5704 9.00138L1.61575 9.10027C2.40872 10.7948 3.43049 12.2038 4.61636 13.2548ZM11.0935 6.8804C10.7618 6.71412 10.3876 6.6235 10 6.6235C8.66236 6.6235 7.586 7.68349 7.586 9.00118C7.586 9.38505 7.67671 9.7495 7.8468 10.0756L11.0935 6.8804ZM13.1366 8.81584L13.238 8.82693C13.6456 8.89909 13.9167 9.28282 13.8434 9.68403C13.556 11.2567 12.2992 12.496 10.7022 12.7813C10.2946 12.8541 9.90425 12.588 9.83026 12.1869C9.75628 11.7858 10.0267 11.4016 10.4342 11.3288C11.4152 11.1536 12.1904 10.3892 12.367 9.42273C12.4343 9.05496 12.7675 8.80017 13.1366 8.81584ZM16.997 5.31439C17.3279 5.06924 17.7981 5.13452 18.0472 5.46021C18.773 6.40914 19.4073 7.49852 19.9384 8.70722C20.0205 8.89401 20.0205 9.10586 19.9386 9.29271C17.8613 14.0289 14.1345 16.9245 10 16.9245C9.05878 16.9245 8.12751 16.7747 7.23057 16.4801C6.83766 16.351 6.62544 15.9329 6.75657 15.5463C6.8877 15.1596 7.31252 14.9507 7.70543 15.0798C8.44973 15.3242 9.22068 15.4483 10 15.4483C13.3046 15.4483 16.381 13.1864 18.2727 9.32978L18.4284 9.00138L18.3755 8.88456C17.9948 8.0784 17.5645 7.33896 17.0898 6.67414L16.8488 6.34799C16.5997 6.02231 16.666 5.55955 16.997 5.31439Z" fill="#65656B"/>
</g>
</svg>
